<svg xmlns="http://www.w3.org/2000/svg" data-name="Layer 1" viewBox="0 0 24 30" x="0px" y="0px"><title>Multimedia1</title><path d="M23.5,12c0-3.18-4.29-5.64-10.17-6A1,1,0,0,0,11.9,4.7l-2,1.5s0,0,0,0a.71.71,0,0,0-.19.23.36.36,0,0,0-.07.1.93.93,0,0,0,0,.84.36.36,0,0,0,.07.1.71.71,0,0,0,.19.23s0,0,0,0l2,1.5a1,1,0,0,0,.6.2,1,1,0,0,0,.8-.4,1,1,0,0,0,.08-1c4.85.31,8.12,2.22,8.12,3.95,0,1.13-1.4,2.33-3.71,3.12.08-.58.14-1.17.17-1.79a1,1,0,0,0,1.15,0,1,1,0,0,0,.19-1.4l-1.5-2s0,0-.05,0a.71.71,0,0,0-.23-.19l-.1-.07A1,1,0,0,0,17,9.5h0a1,1,0,0,0-.41.1l-.1.07a.71.71,0,0,0-.23.19s0,0-.05,0l-1.5,2a1,1,0,0,0,.2,1.4,1,1,0,0,0,.6.2,1,1,0,0,0,.45-.11,19.2,19.2,0,0,1-.28,2.28A19.79,19.79,0,0,1,12,16a19.79,19.79,0,0,1-3.67-.33A19.79,19.79,0,0,1,8,12c0-5.6,2.11-9.5,4-9.5.9,0,1.85.89,2.6,2.44a1,1,0,1,0,1.8-.88C15.29,1.77,13.72.5,12,.5,8.58.5,6,5.44,6,12a23.91,23.91,0,0,0,.21,3.12C3.9,14.33,2.5,13.13,2.5,12S4,9.84,4.93,9.4a1,1,0,1,0-.86-1.8C1.77,8.7.5,10.26.5,12c0,2.4,2.44,4.38,6.15,5.35,1,3.71,2.95,6.15,5.35,6.15s4.38-2.44,5.35-6.15C21.06,16.38,23.5,14.4,23.5,12ZM12,21.5c-1.13,0-2.33-1.4-3.12-3.71A23.91,23.91,0,0,0,12,18a23.91,23.91,0,0,0,3.12-.21C14.33,20.1,13.13,21.5,12,21.5Z"/><text x="0" y="39" fill="#000000" font-size="5px" font-weight="bold" font-family="'Helvetica Neue', Helvetica, Arial-Unicode, Arial, Sans-serif">Created by Martin</text><text x="0" y="44" fill="#000000" font-size="5px" font-weight="bold" font-family="'Helvetica Neue', Helvetica, Arial-Unicode, Arial, Sans-serif">from the Noun Project</text></svg>