<svg xmlns="http://www.w3.org/2000/svg" xmlns:xlink="http://www.w3.org/1999/xlink" xml:space="preserve" version="1.1" style="shape-rendering:geometricPrecision;text-rendering:geometricPrecision;image-rendering:optimizeQuality;" viewBox="0 0 100 125" x="0px" y="0px" fill-rule="evenodd" clip-rule="evenodd"><defs><style type="text/css">
   
    .fil0 {fill:black}
   
  </style></defs><g><path class="fil0" d="M4.74 14.61l90.52 0c1.85,0 3.37,1.51 3.37,3.37l0 64.04c0,1.86 -1.52,3.37 -3.37,3.37l-90.52 0c-1.85,0 -3.37,-1.51 -3.37,-3.37l0 -64.04c0,-1.86 1.52,-3.37 3.37,-3.37zm19.44 17.32c4.95,0 8.97,4.01 8.97,8.96 0,4.95 -4.02,8.97 -8.97,8.97 -4.95,0 -8.96,-4.02 -8.96,-8.97 0,-4.95 4.01,-8.96 8.96,-8.96zm-15.01 -9.53l81.66 0 0 45.48c-16.28,-2.84 -24.84,-25.72 -35.06,-25.72 -10.89,0 -25.34,25.72 -33.13,25.72 -6.62,0 -7.25,-6.81 -13.47,-9.89l0 -35.59z"/></g><text x="0" y="115" fill="#000000" font-size="5px" font-weight="bold" font-family="'Helvetica Neue', Helvetica, Arial-Unicode, Arial, Sans-serif">Created by YANDI DESIGN</text><text x="0" y="120" fill="#000000" font-size="5px" font-weight="bold" font-family="'Helvetica Neue', Helvetica, Arial-Unicode, Arial, Sans-serif">from the Noun Project</text></svg>