<svg xmlns="http://www.w3.org/2000/svg" data-name="Layer 1" viewBox="0 0 128 160" x="0px" y="0px"><title>Miscellaneous 105 final</title><path d="M116,29H12A12.01359,12.01359,0,0,0,0,41V87A12.01359,12.01359,0,0,0,12,99H116a12.01359,12.01359,0,0,0,12-12V41A12.01359,12.01359,0,0,0,116,29Zm8,58a8,8,0,0,1-8,8H12a8,8,0,0,1-8-8V41a8,8,0,0,1,8-8H116a8,8,0,0,1,8,8Z"/><path d="M20.91455,64A85.33169,85.33169,0,0,1,40.43091,50.8501a27.16605,27.16605,0,0,1,5.09094-6.5097A83.84873,83.84873,0,0,0,16.57227,62.59961a1.99928,1.99928,0,0,0,0,2.80078A83.84873,83.84873,0,0,0,45.52185,83.65961a27.16605,27.16605,0,0,1-5.09094-6.5097A85.33169,85.33169,0,0,1,20.91455,64Z"/><path d="M111.42773,65.40039a1.99928,1.99928,0,0,0,0-2.80078A83.84874,83.84874,0,0,0,82.47815,44.34039a27.16605,27.16605,0,0,1,5.09094,6.5097A85.33169,85.33169,0,0,1,107.08545,64,85.33169,85.33169,0,0,1,87.56909,77.1499a27.16605,27.16605,0,0,1-5.09094,6.5097A83.84874,83.84874,0,0,0,111.42773,65.40039Z"/><path d="M90,66a2,2,0,0,0,0-4H86.90759A23.03082,23.03082,0,0,0,66,41.09241V38a2,2,0,0,0-4,0v3.09241A23.03082,23.03082,0,0,0,41.09241,62H38a2,2,0,0,0,0,4h3.09241A23.03082,23.03082,0,0,0,62,86.90759V90a2,2,0,0,0,4,0V86.90759A23.03082,23.03082,0,0,0,86.90759,66ZM80,66h2.89319A19.0033,19.0033,0,0,1,66,82.89319V80a2,2,0,0,0-4,0v2.89319A19.0033,19.0033,0,0,1,45.10681,66H48a2,2,0,0,0,0-4H45.10681A19.0033,19.0033,0,0,1,62,45.10681V48a2,2,0,0,0,4,0V45.10681A19.0033,19.0033,0,0,1,82.89319,62H80a2,2,0,0,0,0,4Z"/><path d="M10,50a2.0001,2.0001,0,0,0,2-2V41h8a2,2,0,0,0,0-4H10a2.0001,2.0001,0,0,0-2,2v9A2.0001,2.0001,0,0,0,10,50Z"/><path d="M20,87H12V80a2,2,0,0,0-4,0v9a2.0001,2.0001,0,0,0,2,2H20a2,2,0,0,0,0-4Z"/><path d="M118,37H108a2,2,0,0,0,0,4h8v7a2,2,0,0,0,4,0V39A2.0001,2.0001,0,0,0,118,37Z"/><path d="M118,78a2.0001,2.0001,0,0,0-2,2v7h-8a2,2,0,0,0,0,4h10a2.0001,2.0001,0,0,0,2-2V80A2.0001,2.0001,0,0,0,118,78Z"/><path d="M64,54a9.99121,9.99121,0,0,0-1.85754.17975,5.492,5.492,0,0,1,2.08276,3.83167A5.99648,5.99648,0,1,1,58,64c0-.01917.00269-.03766.00287-.05682a5.49829,5.49829,0,0,1-3.72321-2.2514A9.99463,9.99463,0,1,0,64,54Z"/><text x="0" y="143" fill="#000000" font-size="5px" font-weight="bold" font-family="'Helvetica Neue', Helvetica, Arial-Unicode, Arial, Sans-serif">Created by priyanka</text><text x="0" y="148" fill="#000000" font-size="5px" font-weight="bold" font-family="'Helvetica Neue', Helvetica, Arial-Unicode, Arial, Sans-serif">from the Noun Project</text></svg>